<svg width="155" height="30" viewBox="0 0 155 30" fill="none" xmlns="http://www.w3.org/2000/svg">
<g clip-path="url(#clip0_34_3799)">
<path d="M24.1385 19.402C24.6064 19.402 24.8404 19.9885 24.8404 21.1614C24.7888 21.9958 24.5155 22.8024 24.0475 23.501C23.4775 24.4346 22.7603 25.2737 21.9225 25.9871C21.0506 26.7398 20.0722 27.3647 19.0177 27.8422C18.0446 28.3053 16.9798 28.5533 15.8984 28.5689C14.5207 28.5689 13.5979 27.3832 13.13 25.0118C12.4562 26.092 11.5406 27.0076 10.4526 27.6892C9.12581 28.4509 7.60138 28.8164 6.06603 28.741C5.24931 28.7755 4.43423 28.6432 3.67241 28.3524C2.91057 28.0616 2.21865 27.6187 1.64052 27.0517C1.09895 26.5194 0.67425 25.8839 0.392604 25.1844C0.110955 24.485 -0.0216773 23.7363 0.00288165 22.9846C0.00288165 18.6498 1.47155 15.2329 4.4089 12.734C5.42186 11.8264 6.60788 11.1245 7.89862 10.6686C9.00345 10.3334 10.154 10.1658 11.3104 10.1713C12.3243 10.1389 13.3302 10.3582 14.2347 10.8088C14.5986 10.0693 15.0145 9.69958 15.4825 9.69958C15.9729 9.71545 16.4553 9.82675 16.9015 10.027C17.3477 10.2273 17.749 10.5125 18.0819 10.8662C18.7643 11.3998 19.2035 12.1768 19.3036 13.0272C18.8355 14.0662 18.3016 15.0754 17.705 16.0489C17.4651 17.6826 17.3608 19.3327 17.393 20.983C17.393 23.1079 17.666 24.1703 18.2119 24.1703C18.8877 24.1703 20.5253 22.8444 23.1247 20.1925C23.5926 19.6655 23.9306 19.402 24.1385 19.402ZM5.73462 21.7224C5.73462 23.6859 6.47545 24.6676 7.95713 24.6676C9.54278 24.6421 10.8555 23.8133 11.8953 22.1814C12.2948 21.5393 12.597 20.8435 12.792 20.116C12.7489 17.6462 13.0107 15.1803 13.5719 12.7722C11.4671 13.1804 9.54496 14.2234 8.0741 15.7556C7.29842 16.5471 6.69187 17.4826 6.2901 18.5073C5.88836 19.532 5.69949 20.6251 5.73462 21.7224Z" fill="white"/>
<path d="M41.3338 16.8522C41.3338 16.0022 40.8397 15.5772 39.852 15.5772C39.176 15.5772 38.4222 16.2147 37.5905 17.4897C36.7626 18.7661 36.1566 20.1685 35.7968 21.6396V21.7161C35.8033 22.6231 35.9412 23.5246 36.2065 24.3935C36.4195 25.0129 36.5571 25.6548 36.6158 26.306C36.6158 27.1559 35.511 28.0059 33.3014 28.8559C33.0167 28.9721 32.7129 29.0369 32.4047 29.0471C32.0991 29.054 31.8 28.9596 31.5559 28.7792C31.3118 28.5987 31.1369 28.3427 31.0594 28.0527C30.7812 27.1809 30.6559 26.2691 30.689 25.3561C30.689 24.2214 30.7215 23.159 30.7865 22.1687C30.8515 21.1785 30.9165 20.2478 30.9815 19.3766C31.0465 18.5266 31.1114 17.7744 31.1764 17.1199C31.2414 16.4655 31.2739 15.9363 31.2739 15.5326C31.2739 14.6826 30.871 14.2577 30.0652 14.2577C29.2594 14.2577 28.3236 15.182 27.2578 17.0307C26.192 18.8794 25.6592 20.3456 25.6592 21.4293C25.6496 22.4441 25.7875 23.4551 26.0685 24.4318C26.2819 25.0511 26.4193 25.6931 26.478 26.3442C26.478 27.1942 25.3732 28.0442 23.1637 28.8941C22.879 29.0103 22.5751 29.0751 22.2669 29.0854C21.9613 29.0923 21.6623 28.9979 21.4182 28.8174C21.1741 28.6369 20.9991 28.381 20.9217 28.0909C20.6297 27.0974 20.5046 26.0639 20.5513 25.031C20.4889 22.4104 20.6323 19.789 20.9802 17.1901C21.3805 14.7906 22.2833 12.4985 23.6316 10.4583C23.7731 10.169 23.9866 9.91923 24.2523 9.73206C24.5181 9.5449 24.8276 9.42636 25.1523 9.38733C26.0187 9.38733 26.8116 10.0758 27.5307 11.4528C27.7191 11.7687 27.8758 12.1017 27.9986 12.4472C28.4977 11.7521 29.1566 11.1821 29.9221 10.7834C30.6876 10.3847 31.5381 10.1685 32.4047 10.1523C33.507 10.1468 34.5738 10.5342 35.4069 11.2424C35.8224 11.5705 36.1553 11.9877 36.3806 12.4617C36.6059 12.9358 36.7176 13.4542 36.7066 13.9772V14.3979C37.3741 13.4994 38.2478 12.768 39.2573 12.2629C40.2665 11.7578 41.3833 11.4934 42.5164 11.491C43.0954 11.4505 43.6765 11.5244 44.2258 11.7083C44.7752 11.8923 45.2811 12.1826 45.7137 12.562C46.0698 12.9053 46.3508 13.3166 46.5385 13.7705C46.7263 14.2245 46.8171 14.7114 46.8055 15.2011C46.8137 16.1495 46.7355 17.0968 46.5717 18.0315C46.4156 18.8815 46.2402 19.672 46.0452 20.4029C45.8503 21.1339 45.6748 21.7905 45.5188 22.3727C45.3856 22.808 45.3071 23.2576 45.2849 23.7114C45.2849 24.0302 45.3887 24.1895 45.5966 24.1895C46.1476 24.1145 46.6563 23.8583 47.0394 23.4628C47.6113 22.9783 48.1831 22.4492 48.755 21.8755L50.3343 20.2882C50.8325 19.791 51.1681 19.5423 51.3415 19.5423C51.7054 19.5423 51.8874 19.9673 51.8874 20.8173C51.8874 22.6022 50.9711 24.3362 49.1384 26.0191C47.6027 27.5852 45.5037 28.5003 43.2897 28.569C41.4181 28.569 40.4823 26.8988 40.4823 23.5584C40.5205 22.3881 40.6643 21.2234 40.9114 20.0778C41.1429 19.0159 41.2839 17.937 41.3338 16.8522Z" fill="white"/>
<path d="M62.7793 25.2028C61.9039 26.3072 60.7834 27.2015 59.5031 27.8178C58.2228 28.4341 56.8166 28.7563 55.3902 28.7599C52.5179 28.7599 50.367 28.0396 48.9372 26.5989C48.2315 25.8911 47.6808 25.0493 47.3189 24.1252C46.9567 23.2011 46.7911 22.2142 46.8317 21.225C46.7498 18.3409 47.7962 15.5354 49.7559 13.384C50.72 12.306 51.9163 11.4516 53.2584 10.8828C54.6001 10.3139 56.0542 10.0447 57.5154 10.0946C58.7093 10.0519 59.9002 10.2337 61.0244 10.6301C62.5581 11.2421 63.3252 11.8158 63.3252 12.3513C63.3252 12.7763 62.2528 12.9888 60.1081 12.9888C59.1067 12.9709 58.1126 13.1552 57.187 13.5303C56.2611 13.9053 55.424 14.4631 54.7275 15.1689C54.0112 15.8877 53.4503 16.741 53.0785 17.6776C52.7067 18.6141 52.5315 19.6147 52.5633 20.6194C52.5298 21.6745 52.8982 22.704 53.5967 23.5071C53.9675 23.9045 54.4243 24.215 54.934 24.4159C55.4434 24.6167 55.9927 24.7026 56.5407 24.6673C57.6394 24.7068 58.7271 24.4417 59.6793 23.9024C58.7862 23.329 58.0613 22.537 57.5755 21.6046C57.09 20.6722 56.8609 19.6317 56.9108 18.5858C56.893 17.3401 57.3765 16.1377 58.2563 15.239C58.6991 14.7469 59.2457 14.3551 59.8585 14.0909C60.4714 13.8267 61.1351 13.6964 61.8042 13.7091C63.247 13.7091 64.2805 14.098 64.9042 14.8757C65.557 15.7566 65.8868 16.8283 65.84 17.9165C65.8141 19.2693 65.5089 20.6029 64.9431 21.8369H65.177C66.2726 21.8284 67.3241 21.414 68.121 20.6767C68.433 20.3707 68.6993 20.103 68.9202 19.8735C68.9998 19.7764 69.0981 19.6959 69.2097 19.6368C69.3214 19.5777 69.4439 19.5411 69.5703 19.5293C69.9342 19.5293 70.1162 19.9543 70.1162 20.8042C70.1653 21.4536 70.065 22.1055 69.8219 22.7115C69.5788 23.3174 69.1995 23.8618 68.7123 24.304C67.8601 25.0318 66.7683 25.4326 65.6386 25.4323C64.6803 25.4463 63.7226 25.3694 62.7793 25.2028ZM62.4283 20.7405C62.8448 19.9064 63.0668 18.9918 63.078 18.0631C63.078 17.2131 62.7923 16.7881 62.2204 16.7881C61.9862 16.7881 61.7912 16.9539 61.6356 17.2854C61.4874 17.5836 61.4075 17.9099 61.4014 18.2416C61.3874 18.7089 61.4713 19.174 61.6479 19.6082C61.8247 20.0424 62.09 20.4365 62.4283 20.766V20.7405Z" fill="white"/>
<path d="M151.101 28.7536C153.254 28.7536 155 27.0411 155 24.9287C155 22.8163 153.254 21.1039 151.101 21.1039C148.947 21.1039 147.202 22.8163 147.202 24.9287C147.202 27.0411 148.947 28.7536 151.101 28.7536Z" fill="#A1D5F6"/>
<path d="M110.881 20.1033C111.314 20.1033 111.531 20.6897 111.531 21.8627C111.467 22.6906 111.185 23.4881 110.712 24.1767C110.142 25.1105 109.425 25.9496 108.587 26.6629C107.716 27.4165 106.737 28.0414 105.682 28.518C104.747 28.9699 103.722 29.2178 102.68 29.2447C101.889 29.2878 101.102 29.1016 100.419 28.7092C99.8614 28.3464 99.4131 27.8447 99.1188 27.2558C98.6856 26.4058 98.3217 24.7547 98.027 22.3026C97.8659 20.5847 97.5791 18.8804 97.1694 17.2027C96.5214 17.088 95.912 16.8187 95.3951 16.4186C95.1544 16.2514 94.9584 16.0296 94.8239 15.7721C94.6891 15.5146 94.6197 15.2291 94.6218 14.9397C94.601 14.6717 94.6672 14.404 94.8106 14.1751C94.9543 13.9461 95.1681 13.7675 95.421 13.6647C95.9943 13.4015 96.6211 13.2707 97.2537 13.2823C97.9065 13.2728 98.549 13.4452 99.1059 13.7795C99.8208 13.218 100.422 12.5305 100.88 11.7523C101.37 10.7389 101.593 9.62113 101.53 8.5012C101.557 7.88826 101.444 7.27713 101.201 6.71173C100.959 6.14633 100.592 5.64063 100.126 5.23093C99.2295 4.4107 97.8689 4.0006 96.0451 4.0006C94.6477 3.95493 93.2507 4.09646 91.8926 4.42133C91.0428 4.66 90.2145 4.96703 89.4167 5.3393C88.7277 5.6708 88.1169 5.97676 87.584 6.25726C87.1268 6.5173 86.611 6.66186 86.0828 6.678C85.6147 6.678 85.3809 6.53136 85.3809 6.23813C85.4949 5.7044 85.7503 5.20963 86.1217 4.80383C86.7369 4.0345 87.474 3.36723 88.3054 2.82764C90.6987 1.1722 93.5655 0.303984 96.4934 0.347854C99.1103 0.260534 101.705 0.847377 104.019 2.04992C105.109 2.62519 106.013 3.48973 106.627 4.5448C107.24 5.5999 107.539 6.803 107.489 8.0167C107.586 9.9866 106.964 11.926 105.734 13.4863C104.576 14.914 103.038 15.9996 101.29 16.6226C101.691 17.4976 102.011 18.4066 102.245 19.3383C102.492 20.3073 102.732 21.1997 102.966 22.0157C103.154 22.7186 103.422 23.3986 103.765 24.0429C103.854 24.2629 104.002 24.4545 104.195 24.5963C104.388 24.7382 104.617 24.8247 104.857 24.8461C105.447 24.7751 105.996 24.5126 106.417 24.1002C107.028 23.603 107.632 23.0612 108.23 22.4747C108.828 21.8882 109.36 21.3463 109.829 20.8491C110.322 20.3519 110.673 20.1033 110.881 20.1033ZM93.9199 6.33376C94.2579 6.33376 94.4268 6.75873 94.4268 7.60873C94.4296 8.42716 94.3777 9.2449 94.2708 10.0566C94.0554 11.4497 93.756 12.8291 93.3743 14.1875C92.4385 17.6554 91.9704 19.6825 91.9704 20.269V25.8916C92.0261 26.4665 91.9031 27.0445 91.6181 27.5496C91.3327 28.0548 90.8984 28.4634 90.3719 28.7219L88.9486 29.3594C88.4638 29.5696 87.9384 29.674 87.4085 29.6654C86.3167 29.6654 85.7707 28.4351 85.7707 25.9744C85.8981 22.8035 86.4891 19.667 87.5253 16.6609C88.3672 13.6625 89.599 10.7829 91.1906 8.0932C91.5092 7.64803 91.8898 7.2489 92.3214 6.9075C92.7666 6.53396 93.334 6.3303 93.9199 6.33376Z" fill="#A1D5F6"/>
<path d="M144.453 20.1035C144.886 20.1035 145.102 20.6899 145.102 21.8629C145.035 22.692 144.748 23.4896 144.271 24.1769C143.701 25.1109 142.984 25.9501 142.146 26.6631C141.274 27.4163 140.296 28.0412 139.241 28.5182C138.185 29.0009 137.033 29.2491 135.868 29.2449C135.35 29.2722 134.832 29.185 134.353 28.9897C133.874 28.7944 133.446 28.496 133.1 28.1166C132.454 27.4187 132.099 26.5088 132.105 25.5666C132.125 24.4996 132.282 23.4394 132.573 22.4111C132.902 21.2552 133.249 20.0397 133.613 18.7648C134.601 15.3649 135.108 12.9807 135.133 11.6123C135.157 11.1484 135.077 10.6849 134.9 10.2545C134.817 10.0948 134.688 9.96347 134.527 9.87803C134.367 9.7926 134.184 9.75713 134.003 9.77633C133.223 9.77633 132.391 10.2353 131.507 11.1533C130.521 12.2134 129.682 13.3966 129.012 14.6722C127.317 17.5985 126.342 20.873 126.166 24.2343L126.322 25.3053C126.375 25.6855 126.401 26.0689 126.4 26.4527C126.38 26.8925 126.26 27.3223 126.047 27.7098C125.835 28.0973 125.535 28.4326 125.171 28.6903C124.411 29.3443 123.434 29.7045 122.422 29.7039C122.143 29.7036 121.87 29.6215 121.639 29.4682C121.407 29.3149 121.228 29.0973 121.123 28.8433C120.817 28.1769 120.67 27.4509 120.694 26.7205C120.746 25.554 120.942 24.3981 121.279 23.2781C121.669 21.8247 122.102 20.282 122.578 18.65C123.826 14.3407 124.463 11.1278 124.489 9.01137C124.529 8.14303 124.39 7.2757 124.08 6.46147C123.949 6.16433 123.726 5.9154 123.442 5.75047C123.159 5.58553 122.829 5.51307 122.5 5.5435C121.097 5.5435 119.706 6.5252 118.328 8.48863C116.951 10.4521 115.716 13.4992 114.624 17.6301C114.338 18.701 114.122 19.6317 113.974 20.4222L113.935 21.1489C114.303 22.6578 114.551 24.1923 114.676 25.7388C114.676 27.2177 114.143 28.2122 113.077 28.7222L111.654 29.3596C111.196 29.5646 110.696 29.669 110.192 29.6656C108.892 29.6656 108.243 28.448 108.243 26.0129C108.243 23.5777 108.914 18.8243 110.257 11.7525C110.751 9.2026 110.998 7.77467 110.998 7.46867C110.998 5.40327 110.465 4.37053 109.399 4.37053C109.043 4.3681 108.696 4.4751 108.405 4.67653C108.106 4.88053 107.807 5.093 107.508 5.314C107.209 5.535 106.9 5.76873 106.579 6.01523C106.261 6.2208 105.887 6.32743 105.507 6.32123C105.104 6.32123 104.902 5.97697 104.902 5.2885C104.904 4.5954 105.088 3.9144 105.436 3.31136C105.785 2.70833 106.285 2.20366 106.891 1.84613C108.244 0.891964 109.878 0.399308 111.544 0.443684C113.883 0.443684 115.261 1.50615 115.677 3.63107C115.781 4.26853 115.859 4.94427 115.911 5.65823C117.83 2.13087 120.261 0.367188 123.202 0.367188C126.417 0.367188 128.241 1.87163 128.674 4.88053C128.834 5.80247 128.9 6.7379 128.869 7.67267V7.97867C130.559 5.68373 132.56 4.5363 134.874 4.5363C138.149 4.5363 139.787 6.4742 139.787 10.3501C139.746 12.343 139.478 14.3252 138.987 16.2595C138.454 18.5162 138.064 20.1353 137.818 21.1171C137.607 21.8595 137.482 22.623 137.447 23.3928C137.447 24.3618 137.791 24.8463 138.48 24.8463C139.169 24.8463 140.814 23.5203 143.413 20.8684C143.898 20.3585 144.245 20.1035 144.453 20.1035Z" fill="#A1D5F6"/>
<path d="M88.9162 15.0225C89.5659 15.0225 89.9039 15.66 89.9039 16.8648C89.8705 18.2285 89.5752 19.5738 89.033 20.83C88.4086 22.3245 87.5294 23.7041 86.4335 24.9098C85.1925 26.2888 83.6978 27.4263 82.0276 28.2629C80.0683 29.2286 77.8966 29.7059 75.7044 29.6526C73.348 29.6802 71.069 28.8279 69.3296 27.2685C67.5054 25.6748 66.5935 23.3777 66.5935 20.3773C66.5607 17.6054 67.0001 14.8476 67.8933 12.2176C68.6618 9.94297 69.8079 7.80844 71.2855 5.90024C72.5829 4.21807 74.2114 2.80896 76.0748 1.75666C77.6234 0.833857 79.3909 0.324033 81.2024 0.27771C84.0139 0.27771 85.4199 1.50591 85.4199 3.96234C85.4776 5.14067 85.2034 6.31191 84.6271 7.34734C84.0986 8.19731 83.5612 8.62227 83.0153 8.62227C82.6527 8.62214 82.2946 8.54651 81.9641 8.40034C81.6336 8.25417 81.3386 8.04084 81.0983 7.77444C80.8713 7.51637 80.594 7.30557 80.2827 7.15447C79.9713 7.00337 79.6319 6.91504 79.2851 6.89471C78.6354 6.89471 76.8419 6.82461 75.3274 9.21514C74.7334 10.0071 74.293 10.8996 74.028 11.8479C73.1404 14.082 72.6993 16.4626 72.7283 18.8601C72.9646 20.5874 73.8812 22.155 75.282 23.2269C76.1137 23.7932 77.1195 24.059 78.1284 23.9791C79.9201 23.7842 81.5705 22.9327 82.749 21.5949C83.6329 20.6642 84.4127 19.7845 85.2509 18.8347C86.0894 17.8848 86.8302 17.0115 87.467 16.2082C88.1037 15.405 88.5847 15.0225 88.9162 15.0225Z" fill="#A1D5F6"/>
</g>
<defs>
<clipPath id="clip0_34_3799">
<rect width="155" height="30" fill="white"/>
</clipPath>
</defs>
</svg>
