<svg width="16" height="16" viewBox="0 0 16 16" fill="none" xmlns="http://www.w3.org/2000/svg">
<path fill-rule="evenodd" clip-rule="evenodd" d="M6.49313 13.494C5.20755 13.494 3.95084 13.1128 2.88192 12.3986C1.813 11.6844 0.979909 10.6692 0.487939 9.48147C-0.0040302 8.29375 -0.132738 6.98682 0.118066 5.72595C0.36887 4.46507 0.987895 3.30686 1.89694 2.39782C2.80598 1.48878 3.96418 0.869725 5.22506 0.618921C6.48594 0.368117 7.7929 0.496824 8.98062 0.988794C10.1683 1.48076 11.1834 2.31389 11.8977 3.38281C12.6119 4.45173 12.9931 5.70843 12.9931 6.99401C12.9931 8.71792 12.3083 10.3712 11.0893 11.5902C9.87033 12.8092 8.21703 13.494 6.49313 13.494ZM6.49313 2.48702C5.60167 2.48584 4.72992 2.74909 3.98812 3.24349C3.24633 3.7379 2.66786 4.44123 2.32589 5.26449C1.98392 6.08775 1.89379 6.99396 2.06698 7.86843C2.24017 8.74291 2.66886 9.54634 3.29879 10.1771C3.92873 10.8079 4.73162 11.2377 5.60586 11.412C6.4801 11.5864 7.38639 11.4975 8.21011 11.1566C9.03382 10.8157 9.73791 10.2382 10.2333 9.49703C10.7287 8.7559 10.9931 7.88449 10.9931 6.99304C10.9939 6.40158 10.8781 5.81576 10.6523 5.2691C10.4265 4.72244 10.0952 4.22565 9.67727 3.80715C9.25933 3.38865 8.76299 3.05665 8.21664 2.83013C7.67028 2.60361 7.08458 2.48702 6.49313 2.48702ZM16.0091 14.611L15.1162 15.511L12.0081 12.878L13.3891 11.49L16.0091 14.611Z" fill="#6E747A"/>
</svg>
